<svg width="231" height="211" viewBox="0 0 231 211" fill="none" xmlns="http://www.w3.org/2000/svg">
<g filter="url(#filter0_d_104_4)">
<path d="M8.016 157.72C6.864 157.72 6 157.624 5.424 157.432C4.848 157.24 4.56 156.808 4.56 156.136C4.56 155.368 5.04 154.84 6 154.552C6.864 154.168 8.112 153.832 9.744 153.544C13.296 152.872 15.936 151.816 17.664 150.376C19.392 148.84 20.784 146.296 21.84 142.744L41.568 77.944C42.72 74.488 42.72 72.04 41.568 70.6C40.416 69.16 38.256 68.104 35.088 67.432C33.648 67.144 32.688 66.76 32.208 66.28C31.728 65.8 31.488 65.224 31.488 64.552C31.488 63.976 31.92 63.592 32.784 63.4C33.744 63.112 34.8 62.968 35.952 62.968C37.008 62.968 39.12 63.064 42.288 63.256C45.552 63.352 48.672 63.4 51.648 63.4H74.544C81.072 63.4 85.968 63.112 89.232 62.536C92.592 61.96 94.464 61.672 94.848 61.672C95.328 61.672 95.616 61.816 95.712 62.104C95.904 62.296 96 62.632 96 63.112C96 63.496 95.904 63.928 95.712 64.408C95.616 64.888 95.472 65.512 95.28 66.28C94.8 67.912 94.176 70.024 93.408 72.616C92.736 75.112 92.256 77.32 91.968 79.24C91.872 79.72 91.68 80.248 91.392 80.824C91.104 81.4 90.48 81.688 89.52 81.688C88.848 81.688 88.416 81.352 88.224 80.68C88.032 79.912 87.936 79.144 87.936 78.376C87.936 76.648 87.888 75.016 87.792 73.48C87.792 71.944 87.312 70.696 86.352 69.736C85.872 69.256 85.2 68.872 84.336 68.584C83.472 68.2 82.368 68.008 81.024 68.008H60.288C58.464 68.008 57.168 68.44 56.4 69.304C55.728 70.168 55.152 71.176 54.672 72.328C54.576 72.616 54.096 74.056 53.232 76.648C52.368 79.144 51.36 82.12 50.208 85.576C49.152 89.032 48.096 92.392 47.04 95.656C46.08 98.92 45.312 101.416 44.736 103.144C44.544 103.912 44.496 104.728 44.592 105.592C44.688 106.36 45.072 106.744 45.744 106.744L65.184 106.312C69.216 106.12 72.624 104.344 75.408 100.984C76.08 100.216 76.752 99.544 77.424 98.968C78.192 98.296 78.768 97.96 79.152 97.96C79.632 97.96 80.016 98.2 80.304 98.68C80.688 99.064 80.736 99.592 80.448 100.264C78.816 103.912 77.52 107.08 76.56 109.768C75.696 112.36 74.784 115.48 73.824 119.128C73.632 119.8 73.392 120.376 73.104 120.856C72.816 121.336 72.432 121.576 71.952 121.576C71.184 121.576 70.608 121.144 70.224 120.28C69.936 119.416 69.792 118.744 69.792 118.264C69.792 115.48 69.264 113.608 68.208 112.648C67.248 111.592 66 111.016 64.464 110.92C63.408 110.824 61.68 110.776 59.28 110.776C56.976 110.68 54.72 110.632 52.512 110.632C50.304 110.632 48.768 110.632 47.904 110.632C46.272 110.632 44.832 110.872 43.584 111.352C42.432 111.736 41.568 112.984 40.992 115.096L33.648 140.728C32.688 143.992 32.352 146.488 32.64 148.216C32.928 149.848 33.792 151 35.232 151.672C36.768 152.344 38.784 152.968 41.28 153.544C42.72 153.832 43.68 154.168 44.16 154.552C44.64 154.84 44.88 155.368 44.88 156.136C44.88 156.808 44.448 157.24 43.584 157.432C42.72 157.624 41.712 157.72 40.56 157.72C38.16 157.72 36.144 157.624 34.512 157.432C32.976 157.24 31.488 157.096 30.048 157C28.704 156.808 27.072 156.712 25.152 156.712C21.888 156.712 19.104 156.856 16.8 157.144C14.592 157.528 11.664 157.72 8.016 157.72ZM75.0896 159.016C73.8416 159.016 72.4496 158.344 70.9136 157C69.3776 155.656 68.6096 154.216 68.6096 152.68C68.6096 152.104 68.7056 151.528 68.8976 150.952L96.2576 73.048C96.7376 71.704 97.0736 70.408 97.2656 69.16C97.5536 67.912 97.6976 66.664 97.6976 65.416C97.6976 64.552 97.2176 63.736 96.2576 62.968C95.3936 62.2 94.2896 61.672 92.9456 61.384C91.9856 61.192 91.2176 60.952 90.6416 60.664C90.0656 60.28 89.7776 59.896 89.7776 59.512C89.7776 59.224 89.7776 58.984 89.7776 58.792C89.8736 58.6 89.9696 58.408 90.0656 58.216C90.2576 58.024 90.4496 57.928 90.6416 57.928C92.4656 57.448 94.6736 57.016 97.2656 56.632C99.8576 56.152 102.258 55.768 104.466 55.48C106.77 55.096 108.306 54.904 109.074 54.904C109.554 54.904 109.938 55.096 110.226 55.48C110.61 55.768 110.802 56.296 110.802 57.064C110.802 57.64 110.706 58.312 110.514 59.08C110.322 59.752 110.13 60.424 109.938 61.096L80.8496 144.04C80.5616 144.808 80.3696 145.576 80.2736 146.344C80.1776 147.016 80.1296 147.64 80.1296 148.216C80.1296 149.752 80.6096 150.52 81.5696 150.52C82.9136 150.52 84.5456 149.8 86.4656 148.36C88.4816 146.824 90.4496 145 92.3696 142.888C94.2896 140.776 95.8256 138.904 96.9776 137.272C97.5536 136.504 98.2256 135.784 98.9936 135.112C99.7616 134.344 100.338 133.96 100.722 133.96C101.106 133.96 101.298 134.152 101.298 134.536C101.394 134.824 101.442 135.256 101.442 135.832C101.442 137.752 100.77 139.768 99.4256 141.88C98.1776 143.992 96.4976 146.104 94.3856 148.216C92.2736 150.232 90.0176 152.056 87.6176 153.688C85.2176 155.32 82.9136 156.616 80.7056 157.576C78.4976 158.536 76.6256 159.016 75.0896 159.016ZM111.541 159.016C109.237 159.016 107.077 158.248 105.061 156.712C103.045 155.176 101.413 153.16 100.165 150.664C99.0128 148.168 98.4368 145.528 98.4368 142.744C98.4368 138.232 99.3008 133.384 101.029 128.2C102.853 122.92 105.349 117.976 108.517 113.368C111.685 108.664 115.333 104.824 119.461 101.848C123.685 98.872 128.197 97.384 132.997 97.384C137.797 97.384 141.493 99.016 144.085 102.28C146.773 105.544 148.117 109.576 148.117 114.376C148.117 118.696 147.253 123.448 145.525 128.632C143.797 133.72 141.301 138.568 138.037 143.176C134.869 147.784 131.029 151.576 126.517 154.552C122.101 157.528 117.109 159.016 111.541 159.016ZM113.845 154.696C116.149 154.696 118.453 153.688 120.757 151.672C123.157 149.656 125.413 147.016 127.525 143.752C129.733 140.488 131.653 136.888 133.285 132.952C135.013 129.016 136.357 125.08 137.317 121.144C138.373 117.208 138.901 113.608 138.901 110.344C138.901 107.848 138.469 105.784 137.605 104.152C136.837 102.52 135.205 101.704 132.709 101.704C130.501 101.704 128.197 102.616 125.797 104.44C123.493 106.264 121.237 108.712 119.029 111.784C116.917 114.856 114.997 118.312 113.269 122.152C111.541 125.896 110.149 129.832 109.093 133.96C108.133 137.992 107.653 141.928 107.653 145.768C107.653 148.936 108.181 151.24 109.237 152.68C110.389 154.024 111.925 154.696 113.845 154.696ZM156.74 159.016C154.34 159.016 152.276 158.2 150.548 156.568C148.916 154.84 147.956 152.296 147.668 148.936C147.476 145.576 148.244 141.496 149.972 136.696L158.612 113.224C159.092 111.88 159.236 110.872 159.044 110.2C158.852 109.528 158.372 109.192 157.604 109.192C157.124 109.192 155.972 109.672 154.148 110.632C152.42 111.496 150.788 112.792 149.252 114.52C148.868 115 148.436 115.336 147.956 115.528C147.476 115.72 147.14 115.816 146.948 115.816C146.084 115.816 145.652 115.48 145.652 114.808C145.652 114.424 145.7 113.992 145.796 113.512C145.988 112.936 146.516 112.12 147.38 111.064C149.204 108.856 151.076 106.888 152.996 105.16C155.012 103.432 156.932 101.944 158.756 100.696C160.676 99.448 162.404 98.488 163.94 97.816C165.572 97.144 166.916 96.808 167.972 96.808C168.548 96.808 169.076 97.048 169.556 97.528C170.132 97.912 170.564 98.488 170.852 99.256C171.14 100.024 171.092 100.984 170.708 102.136L157.604 139.72C156.452 142.984 156.26 145.672 157.028 147.784C157.796 149.8 159.38 150.808 161.78 150.808C163.604 150.808 165.62 149.992 167.828 148.36C170.132 146.632 172.34 144.568 174.452 142.168C176.564 139.672 178.34 137.32 179.78 135.112C181.22 132.904 182.036 131.272 182.228 130.216C182.42 129.256 182.708 127.816 183.092 125.896C183.572 123.88 184.052 121.72 184.532 119.416C185.012 117.112 185.444 115 185.828 113.08C186.308 111.064 186.644 109.624 186.836 108.76C187.124 107.416 187.556 106.216 188.132 105.16C188.708 104.104 189.38 103.336 190.148 102.856C191.3 102.088 192.452 101.416 193.604 100.84C194.852 100.168 196.436 99.832 198.356 99.832C199.028 99.832 199.412 100.504 199.508 101.848C199.7 103.096 199.652 104.584 199.364 106.312C199.172 107.944 198.836 109.384 198.356 110.632C197.108 113.992 196.004 116.968 195.044 119.56C194.084 122.152 193.22 124.36 192.452 126.184C191.78 127.816 191.156 129.688 190.58 131.8C190.004 133.816 189.62 135.352 189.428 136.408C188.756 140.824 188.708 144.376 189.284 147.064C189.86 149.752 191.348 151.096 193.748 151.096C196.436 151.096 199.22 149.992 202.1 147.784C204.98 145.576 207.62 142.696 210.02 139.144C212.516 135.592 214.532 131.752 216.068 127.624C217.604 123.496 218.372 119.464 218.372 115.528C218.372 114.376 218.18 113.32 217.796 112.36C217.412 111.4 216.98 110.488 216.5 109.624C215.828 108.568 215.156 107.608 214.484 106.744C213.908 105.88 213.62 105.112 213.62 104.44C213.62 103.384 214.148 102.28 215.204 101.128C216.356 99.88 217.652 98.824 219.092 97.96C220.532 97 221.732 96.52 222.692 96.52C223.748 96.52 224.708 97.384 225.572 99.112C226.436 100.84 226.868 103.384 226.868 106.744C226.868 110.968 226.244 115.24 224.996 119.56C223.844 123.784 222.068 128.056 219.668 132.376C217.268 136.696 214.196 141.064 210.452 145.48C206.612 149.992 202.82 153.4 199.076 155.704C195.332 157.912 191.78 159.016 188.42 159.016C186.02 159.016 184.1 157.96 182.66 155.848C181.316 153.736 180.5 151.096 180.212 147.928C180.02 144.76 180.26 141.592 180.932 138.424L182.228 137.848C179.924 141.496 177.092 144.952 173.732 148.216C170.468 151.384 167.252 153.976 164.084 155.992C161.012 158.008 158.564 159.016 156.74 159.016Z" fill="black"/>
</g>
<g filter="url(#filter1_d_104_4)">
<path d="M192.542 81.0794C193.138 80.5042 193.155 79.5546 192.58 78.9585L183.206 69.2434C182.631 68.6473 181.681 68.6303 181.085 69.2055C180.489 69.7807 180.472 70.7303 181.047 71.3265L189.379 79.9621L180.744 88.2944C180.147 88.8696 180.13 89.8192 180.706 90.4153C181.281 91.0115 182.23 91.0285 182.827 90.4533L192.542 81.0794ZM109.744 78.0536C113.831 84.3071 114.301 88.5461 113.181 91.3434C112.052 94.1597 109.065 96.1356 104.747 97.2595C100.477 98.3709 95.2424 98.5502 90.2419 98.0531C85.2341 97.5553 80.6132 96.3945 77.5638 94.9352C76.0191 94.1961 75.03 93.4516 74.5434 92.8084C74.3125 92.5033 74.2329 92.2714 74.2132 92.1103C74.1954 91.9649 74.2137 91.7856 74.3478 91.5397C74.6546 90.9768 75.5315 90.1445 77.5328 89.2071C79.4859 88.2923 82.3113 87.3684 86.2036 86.493C101.804 82.9843 133.549 80.4643 191.473 81.4998L191.527 78.5002C133.589 77.4645 101.528 79.9715 85.5453 83.5661C81.5418 84.4665 78.4852 85.4482 76.2603 86.4904C74.0837 87.5099 72.4867 88.6858 71.7137 90.1039C71.3078 90.8486 71.1348 91.6531 71.2354 92.4748C71.3341 93.2808 71.6826 93.9995 72.151 94.6185C73.0629 95.8237 74.5564 96.8219 76.2688 97.6413C79.7334 99.2993 84.7236 100.519 89.9452 101.038C95.174 101.558 100.786 101.39 105.503 100.163C110.171 98.9478 114.309 96.593 115.965 92.4592C117.629 88.3063 116.544 82.9758 112.256 76.4126L109.744 78.0536Z" fill="#17BB84"/>
</g>
<line x1="95.4682" y1="80.1756" x2="92.4682" y2="88.1756" stroke="black"/>
<line x1="98.4642" y1="79.1857" x2="94.4642" y2="89.1857" stroke="black"/>
<line x1="95.4569" y1="79.2031" x2="91.4569" y2="88.2031" stroke="black"/>
<line x1="103.374" y1="78.0746" x2="100.23" y2="87.4084" stroke="black"/>
<line x1="103.457" y1="77.2031" x2="99.4569" y2="86.2031" stroke="black"/>
<line x1="102.457" y1="77.2031" x2="98.4569" y2="86.2031" stroke="black"/>
<line x1="101.457" y1="77.2031" x2="97.4569" y2="86.2031" stroke="black"/>
<line x1="100.457" y1="77.2031" x2="96.4569" y2="86.2031" stroke="black"/>
<line x1="99.4569" y1="77.2031" x2="95.4569" y2="86.2031" stroke="black"/>
<line x1="98.4569" y1="77.2031" x2="94.4569" y2="86.2031" stroke="black"/>
<line x1="97.4569" y1="77.2031" x2="93.4569" y2="86.2031" stroke="black"/>
<line x1="96.4569" y1="77.2031" x2="92.4569" y2="86.2031" stroke="black"/>
<line x1="95.4682" y1="77.0637" x2="91.6631" y2="87.2245" stroke="black"/>
<defs>
<filter id="filter0_d_104_4" x="0.560059" y="54.904" width="230.308" height="112.112" filterUnits="userSpaceOnUse" color-interpolation-filters="sRGB">
<feFlood flood-opacity="0" result="BackgroundImageFix"/>
<feColorMatrix in="SourceAlpha" type="matrix" values="0 0 0 0 0 0 0 0 0 0 0 0 0 0 0 0 0 0 127 0" result="hardAlpha"/>
<feOffset dy="4"/>
<feGaussianBlur stdDeviation="2"/>
<feComposite in2="hardAlpha" operator="out"/>
<feColorMatrix type="matrix" values="0 0 0 0 0 0 0 0 0 0 0 0 0 0 0 0 0 0 0.25 0"/>
<feBlend mode="normal" in2="BackgroundImageFix" result="effect1_dropShadow_104_4"/>
<feBlend mode="normal" in="SourceGraphic" in2="effect1_dropShadow_104_4" result="shape"/>
</filter>
<filter id="filter1_d_104_4" x="67.2075" y="64.785" width="129.792" height="40.5306" filterUnits="userSpaceOnUse" color-interpolation-filters="sRGB">
<feFlood flood-opacity="0" result="BackgroundImageFix"/>
<feColorMatrix in="SourceAlpha" type="matrix" values="0 0 0 0 0 0 0 0 0 0 0 0 0 0 0 0 0 0 127 0" result="hardAlpha"/>
<feOffset/>
<feGaussianBlur stdDeviation="2"/>
<feComposite in2="hardAlpha" operator="out"/>
<feColorMatrix type="matrix" values="0 0 0 0 0.0901961 0 0 0 0 0.733333 0 0 0 0 0.517647 0 0 0 0.7 0"/>
<feBlend mode="normal" in2="BackgroundImageFix" result="effect1_dropShadow_104_4"/>
<feBlend mode="normal" in="SourceGraphic" in2="effect1_dropShadow_104_4" result="shape"/>
</filter>
</defs>
</svg>
